<mxfile host="app.diagrams.net" agent="Mozilla/5.0 (Windows NT 10.0; Win64; x64) AppleWebKit/537.36 (KHTML, like Gecko) Chrome/133.0.0.0 Safari/537.36" version="26.0.11">
  <diagram name="Page-1" id="bHxEFijC8007QPaECJp6">
    <mxGraphModel dx="1644" dy="454" grid="1" gridSize="10" guides="1" tooltips="1" connect="1" arrows="1" fold="1" page="1" pageScale="1" pageWidth="850" pageHeight="1100" math="0" shadow="0">
      <root>
        <mxCell id="0" />
        <mxCell id="1" parent="0" />
        <mxCell id="neZBOmozRX93bnKHMXi--36" value="audits for request claim form" style="rounded=1;whiteSpace=wrap;html=1;absoluteArcSize=1;arcSize=14;strokeWidth=2;" parent="1" vertex="1">
          <mxGeometry x="-140" y="450" width="70" height="40" as="geometry" />
        </mxCell>
        <mxCell id="neZBOmozRX93bnKHMXi--34" value="audits for processing (rejected claims)" style="rounded=1;whiteSpace=wrap;html=1;absoluteArcSize=1;arcSize=14;strokeWidth=2;" parent="1" vertex="1">
          <mxGeometry x="-130" y="710" width="80" height="60" as="geometry" />
        </mxCell>
        <mxCell id="neZBOmozRX93bnKHMXi--39" value="audits for approve claim" style="rounded=1;whiteSpace=wrap;html=1;absoluteArcSize=1;arcSize=14;strokeWidth=2;" parent="1" vertex="1">
          <mxGeometry x="-20" y="640" width="70" height="40" as="geometry" />
        </mxCell>
        <mxCell id="AQpcyCFNnfoMruxE-PI4-3" value="TO BE Process flow GAP Claims" style="swimlane;childLayout=stackLayout;resizeParent=1;resizeParentMax=0;horizontal=0;startSize=20;horizontalStack=0;html=1;" vertex="1" parent="1">
          <mxGeometry x="70" y="60" width="720" height="900" as="geometry" />
        </mxCell>
        <mxCell id="AQpcyCFNnfoMruxE-PI4-4" value="QA agent portal" style="swimlane;startSize=20;horizontal=0;html=1;" vertex="1" parent="AQpcyCFNnfoMruxE-PI4-3">
          <mxGeometry x="20" width="700" height="330" as="geometry" />
        </mxCell>
        <mxCell id="AQpcyCFNnfoMruxE-PI4-12" style="edgeStyle=orthogonalEdgeStyle;rounded=0;orthogonalLoop=1;jettySize=auto;html=1;exitX=0.5;exitY=1;exitDx=0;exitDy=0;exitPerimeter=0;entryX=0.5;entryY=0;entryDx=0;entryDy=0;" edge="1" parent="AQpcyCFNnfoMruxE-PI4-4" source="AQpcyCFNnfoMruxE-PI4-7" target="AQpcyCFNnfoMruxE-PI4-11">
          <mxGeometry relative="1" as="geometry" />
        </mxCell>
        <mxCell id="AQpcyCFNnfoMruxE-PI4-7" value="start" style="strokeWidth=2;html=1;shape=mxgraph.flowchart.start_2;whiteSpace=wrap;" vertex="1" parent="AQpcyCFNnfoMruxE-PI4-4">
          <mxGeometry x="40" y="12" width="30" height="30" as="geometry" />
        </mxCell>
        <mxCell id="AQpcyCFNnfoMruxE-PI4-11" value="views agent list" style="rounded=1;whiteSpace=wrap;html=1;absoluteArcSize=1;arcSize=14;strokeWidth=2;" vertex="1" parent="AQpcyCFNnfoMruxE-PI4-4">
          <mxGeometry x="30" y="62" width="50" height="40" as="geometry" />
        </mxCell>
        <mxCell id="AQpcyCFNnfoMruxE-PI4-15" value="" style="edgeStyle=orthogonalEdgeStyle;rounded=0;orthogonalLoop=1;jettySize=auto;html=1;exitX=0.5;exitY=1;exitDx=0;exitDy=0;" edge="1" parent="AQpcyCFNnfoMruxE-PI4-4" source="AQpcyCFNnfoMruxE-PI4-11" target="AQpcyCFNnfoMruxE-PI4-14">
          <mxGeometry relative="1" as="geometry">
            <mxPoint x="145" y="182" as="targetPoint" />
            <mxPoint x="145" y="162" as="sourcePoint" />
          </mxGeometry>
        </mxCell>
        <mxCell id="AQpcyCFNnfoMruxE-PI4-16" style="edgeStyle=orthogonalEdgeStyle;rounded=0;orthogonalLoop=1;jettySize=auto;html=1;exitX=0.5;exitY=1;exitDx=0;exitDy=0;" edge="1" parent="AQpcyCFNnfoMruxE-PI4-4" source="AQpcyCFNnfoMruxE-PI4-14">
          <mxGeometry relative="1" as="geometry">
            <mxPoint x="55" y="349" as="targetPoint" />
          </mxGeometry>
        </mxCell>
        <mxCell id="AQpcyCFNnfoMruxE-PI4-14" value="selects an agent" style="rounded=1;whiteSpace=wrap;html=1;absoluteArcSize=1;arcSize=14;strokeWidth=2;" vertex="1" parent="AQpcyCFNnfoMruxE-PI4-4">
          <mxGeometry x="30" y="122" width="50" height="35" as="geometry" />
        </mxCell>
        <mxCell id="AQpcyCFNnfoMruxE-PI4-23" style="edgeStyle=orthogonalEdgeStyle;rounded=0;orthogonalLoop=1;jettySize=auto;html=1;exitX=1;exitY=0.5;exitDx=0;exitDy=0;" edge="1" parent="AQpcyCFNnfoMruxE-PI4-4" source="AQpcyCFNnfoMruxE-PI4-22">
          <mxGeometry relative="1" as="geometry">
            <mxPoint x="210" y="358" as="targetPoint" />
          </mxGeometry>
        </mxCell>
        <mxCell id="AQpcyCFNnfoMruxE-PI4-22" value="go through workflow" style="rounded=1;whiteSpace=wrap;html=1;absoluteArcSize=1;arcSize=14;strokeWidth=2;" vertex="1" parent="AQpcyCFNnfoMruxE-PI4-4">
          <mxGeometry x="130" y="248" width="50" height="40" as="geometry" />
        </mxCell>
        <mxCell id="AQpcyCFNnfoMruxE-PI4-30" style="edgeStyle=orthogonalEdgeStyle;rounded=0;orthogonalLoop=1;jettySize=auto;html=1;exitX=0.5;exitY=0;exitDx=0;exitDy=0;" edge="1" parent="AQpcyCFNnfoMruxE-PI4-4" source="neZBOmozRX93bnKHMXi--25">
          <mxGeometry relative="1" as="geometry">
            <mxPoint x="270" y="210" as="targetPoint" />
          </mxGeometry>
        </mxCell>
        <mxCell id="neZBOmozRX93bnKHMXi--25" value="audits for responding to queries" style="rounded=1;whiteSpace=wrap;html=1;absoluteArcSize=1;arcSize=14;strokeWidth=2;" parent="AQpcyCFNnfoMruxE-PI4-4" vertex="1">
          <mxGeometry x="230" y="230" width="80" height="45" as="geometry" />
        </mxCell>
        <mxCell id="neZBOmozRX93bnKHMXi--26" style="edgeStyle=orthogonalEdgeStyle;rounded=0;orthogonalLoop=1;jettySize=auto;html=1;exitX=0.5;exitY=1;exitDx=0;exitDy=0;" parent="AQpcyCFNnfoMruxE-PI4-4" source="neZBOmozRX93bnKHMXi--25" target="neZBOmozRX93bnKHMXi--25" edge="1">
          <mxGeometry relative="1" as="geometry" />
        </mxCell>
        <mxCell id="AQpcyCFNnfoMruxE-PI4-32" style="edgeStyle=orthogonalEdgeStyle;rounded=0;orthogonalLoop=1;jettySize=auto;html=1;exitX=0.5;exitY=0;exitDx=0;exitDy=0;exitPerimeter=0;" edge="1" parent="AQpcyCFNnfoMruxE-PI4-4" source="AQpcyCFNnfoMruxE-PI4-31">
          <mxGeometry relative="1" as="geometry">
            <mxPoint x="270" y="170" as="targetPoint" />
          </mxGeometry>
        </mxCell>
        <mxCell id="AQpcyCFNnfoMruxE-PI4-31" value="" style="strokeWidth=2;html=1;shape=mxgraph.flowchart.decision;whiteSpace=wrap;" vertex="1" parent="AQpcyCFNnfoMruxE-PI4-4">
          <mxGeometry x="260" y="190" width="20" height="20" as="geometry" />
        </mxCell>
        <mxCell id="AQpcyCFNnfoMruxE-PI4-33" style="edgeStyle=orthogonalEdgeStyle;rounded=0;orthogonalLoop=1;jettySize=auto;html=1;exitX=0.5;exitY=0;exitDx=0;exitDy=0;" edge="1" parent="AQpcyCFNnfoMruxE-PI4-4" source="neZBOmozRX93bnKHMXi--30">
          <mxGeometry relative="1" as="geometry">
            <mxPoint x="270" y="110" as="targetPoint" />
          </mxGeometry>
        </mxCell>
        <mxCell id="neZBOmozRX93bnKHMXi--30" value="audits for loading of claims" style="rounded=1;whiteSpace=wrap;html=1;absoluteArcSize=1;arcSize=14;strokeWidth=2;" parent="AQpcyCFNnfoMruxE-PI4-4" vertex="1">
          <mxGeometry x="230" y="130" width="80" height="40" as="geometry" />
        </mxCell>
        <mxCell id="AQpcyCFNnfoMruxE-PI4-35" style="edgeStyle=orthogonalEdgeStyle;rounded=0;orthogonalLoop=1;jettySize=auto;html=1;exitX=0.5;exitY=0;exitDx=0;exitDy=0;exitPerimeter=0;" edge="1" parent="AQpcyCFNnfoMruxE-PI4-4" source="AQpcyCFNnfoMruxE-PI4-34">
          <mxGeometry relative="1" as="geometry">
            <mxPoint x="270" y="70" as="targetPoint" />
          </mxGeometry>
        </mxCell>
        <mxCell id="AQpcyCFNnfoMruxE-PI4-34" value="" style="strokeWidth=2;html=1;shape=mxgraph.flowchart.decision;whiteSpace=wrap;" vertex="1" parent="AQpcyCFNnfoMruxE-PI4-4">
          <mxGeometry x="260" y="90" width="20" height="20" as="geometry" />
        </mxCell>
        <mxCell id="neZBOmozRX93bnKHMXi--32" value="audits for outstanding documents" style="rounded=1;whiteSpace=wrap;html=1;absoluteArcSize=1;arcSize=14;strokeWidth=2;" parent="AQpcyCFNnfoMruxE-PI4-4" vertex="1">
          <mxGeometry x="239.5" y="30" width="70.5" height="40" as="geometry" />
        </mxCell>
        <mxCell id="AQpcyCFNnfoMruxE-PI4-5" value="REM digital system" style="swimlane;startSize=20;horizontal=0;html=1;" vertex="1" parent="AQpcyCFNnfoMruxE-PI4-3">
          <mxGeometry x="20" y="330" width="700" height="270" as="geometry" />
        </mxCell>
        <mxCell id="AQpcyCFNnfoMruxE-PI4-19" style="edgeStyle=orthogonalEdgeStyle;rounded=0;orthogonalLoop=1;jettySize=auto;html=1;exitX=0.5;exitY=1;exitDx=0;exitDy=0;" edge="1" parent="AQpcyCFNnfoMruxE-PI4-5" source="AQpcyCFNnfoMruxE-PI4-17">
          <mxGeometry relative="1" as="geometry">
            <mxPoint x="60" y="290" as="targetPoint" />
          </mxGeometry>
        </mxCell>
        <mxCell id="AQpcyCFNnfoMruxE-PI4-17" value="retrieves workflow" style="rounded=1;whiteSpace=wrap;html=1;absoluteArcSize=1;arcSize=14;strokeWidth=2;" vertex="1" parent="AQpcyCFNnfoMruxE-PI4-5">
          <mxGeometry x="30" y="20" width="60" height="30" as="geometry" />
        </mxCell>
        <mxCell id="AQpcyCFNnfoMruxE-PI4-25" style="edgeStyle=orthogonalEdgeStyle;rounded=0;orthogonalLoop=1;jettySize=auto;html=1;exitX=1;exitY=0.5;exitDx=0;exitDy=0;" edge="1" parent="AQpcyCFNnfoMruxE-PI4-5">
          <mxGeometry relative="1" as="geometry">
            <mxPoint x="270" y="-55" as="targetPoint" />
            <mxPoint x="240" y="45" as="sourcePoint" />
          </mxGeometry>
        </mxCell>
        <mxCell id="AQpcyCFNnfoMruxE-PI4-24" value="captures general information" style="rounded=1;whiteSpace=wrap;html=1;absoluteArcSize=1;arcSize=14;strokeWidth=2;" vertex="1" parent="AQpcyCFNnfoMruxE-PI4-5">
          <mxGeometry x="170" y="30" width="70" height="40" as="geometry" />
        </mxCell>
        <mxCell id="AQpcyCFNnfoMruxE-PI4-6" value="External systems" style="swimlane;startSize=20;horizontal=0;html=1;" vertex="1" parent="AQpcyCFNnfoMruxE-PI4-3">
          <mxGeometry x="20" y="600" width="700" height="300" as="geometry" />
        </mxCell>
        <mxCell id="AQpcyCFNnfoMruxE-PI4-21" style="edgeStyle=orthogonalEdgeStyle;rounded=0;orthogonalLoop=1;jettySize=auto;html=1;exitX=1;exitY=0.5;exitDx=0;exitDy=0;" edge="1" parent="AQpcyCFNnfoMruxE-PI4-6" source="AQpcyCFNnfoMruxE-PI4-20">
          <mxGeometry relative="1" as="geometry">
            <mxPoint x="150" y="-310" as="targetPoint" />
          </mxGeometry>
        </mxCell>
        <mxCell id="AQpcyCFNnfoMruxE-PI4-20" value="provides workflow" style="rounded=1;whiteSpace=wrap;html=1;absoluteArcSize=1;arcSize=14;strokeWidth=2;" vertex="1" parent="AQpcyCFNnfoMruxE-PI4-6">
          <mxGeometry x="30" y="20" width="60" height="30" as="geometry" />
        </mxCell>
      </root>
    </mxGraphModel>
  </diagram>
</mxfile>
